<?xml version="1.0" standalone="no"?>
<!DOCTYPE svg PUBLIC "-//W3C//DTD SVG 20010904//EN"
 "http://www.w3.org/TR/2001/REC-SVG-20010904/DTD/svg10.dtd">
<svg version="1.0" xmlns="http://www.w3.org/2000/svg"
 width="148.000000pt" height="148.000000pt" viewBox="0 0 148.000000 148.000000"
 preserveAspectRatio="xMidYMid meet">

<g transform="translate(0.000000,148.000000) scale(0.100000,-0.100000)"
fill="#000000" stroke="none">
<path d="M645 1469 c-260 -33 -447 -202 -509 -459 -52 -216 -36 -486 40 -659
109 -248 362 -377 666 -340 237 29 402 156 454 352 44 164 -35 340 -185 417
-33 17 -41 26 -46 57 -20 134 -68 211 -160 258 -53 27 -68 30 -154 30 -76 0
-105 -4 -141 -21 -46 -21 -120 -84 -120 -101 0 -5 20 -24 45 -42 l46 -33 34
31 c56 49 134 63 208 37 48 -18 74 -41 98 -88 33 -64 32 -64 -98 -63 -140 0
-210 -19 -274 -73 -54 -47 -79 -101 -79 -176 0 -148 112 -241 287 -239 93 2
160 30 216 93 40 44 87 149 87 193 0 27 17 20 59 -22 41 -41 71 -115 71 -172
0 -51 -41 -141 -86 -189 -83 -89 -195 -130 -354 -130 -165 0 -268 38 -365 135
-65 65 -105 136 -133 237 -24 90 -24 386 0 476 49 174 149 292 296 344 81 28
254 36 346 14 148 -35 259 -125 322 -261 19 -40 34 -78 34 -83 0 -10 99 13
111 25 13 14 -47 149 -96 218 -97 137 -232 211 -425 235 -94 11 -96 11 -195
-1z m273 -755 c56 -11 2 -170 -73 -211 -48 -27 -141 -31 -185 -8 -89 46 -94
157 -8 201 53 28 179 36 266 18z"/>
</g>
</svg>
